# Blender v2.92.0 OBJ File: 'levelBackdrop.blend'
# www.blender.org
mtllib levelBackdrop.mtl
o Plane
v -1.000000 0.000000 1.000000
v 1.000000 0.000000 1.000000
v -1.000000 0.000000 -1.000000
v 1.000000 0.000000 -1.000000
v -1.000000 2.000000 1.000000
v 1.000000 2.000000 1.000000
v -1.000000 2.000000 -1.000000
v 1.000000 2.000000 -1.000000
vt 0.000000 0.000000
vt 1.000000 0.000000
vt 1.000000 1.000000
vt 0.000000 1.000000
vt 0.000000 0.000000
vt 1.000000 0.000000
vt 0.000000 0.000000
vt 1.000000 0.000000
vn 0.0000 1.0000 0.0000
vn 0.0000 0.0000 -1.0000
vn 0.0000 -1.0000 0.0000
vn 1.0000 0.0000 0.0000
vn 0.0000 0.0000 1.0000
usemtl Material
s off
f 1/1/1 2/2/1 4/3/1 3/4/1
f 2/2/2 1/1/2 5/5/2 6/6/2
f 6/6/3 5/5/3 7/7/3 8/8/3
f 3/4/4 7/7/4 5/5/4 1/1/4
f 4/3/5 8/8/5 7/7/5 3/4/5
